<?xml version="1.0" encoding="UTF-8"?>
<svg id="Layer_2" data-name="Layer 2" xmlns="http://www.w3.org/2000/svg" viewBox="0 0 1554.49 1314.9">
  <defs>
    <style>
      .cls-1 {
        fill: #010d26;
      }

      .cls-2 {
        fill: #0367a6;
      }

      .cls-3 {
        fill: #048abf;
      }

      .cls-4 {
        fill: #94cef2;
      }
    </style>
  </defs>
  <g id="Layer_15" data-name="Layer 15">
    <g>
      <g>
        <path class="cls-3" d="m1506.95,502.11l-144.48-4.27c-16.49-.49-31.03-10.88-36.92-26.3-12.75-33.4-29.07-64.93-48.4-94.18-9.06-13.71-9.12-31.49-.03-45.17l79.47-119.65c11.49-17.29,8.14-40.47-7.76-53.82l-.8-.68c-17.26-14.48-42.99-12.23-57.48,5.02l-165.24,196.83c-13.07,15.56-12.79,38.47.9,53.49,64.19,70.46,99.95,168.15,87.2,276.24-15.82,134.02-110.13,246.36-239.39,285.15-104.24,31.27-206.66,12.97-287.17-38.05-17.16-10.88-39.77-7.2-52.84,8.37l-153.42,182.74c-14.48,17.25-12.24,42.98,5.02,57.47,8.83,7.42,19.98,10.49,30.73,9.3,8.54-.94,16.82-4.57,23.49-10.85l90.78-85.57c11.98-11.3,29.55-14.21,44.62-7.56,36.93,16.29,76.16,28.09,116.92,34.77,16.83,2.76,30.26,15.52,33.63,32.22l25.14,124.57c4.1,20.36,22.84,34.37,43.53,32.57l91.05-7.94c20.61-1.8,36.62-18.75,37.23-39.43l3.95-133.82c.48-16.19,10.49-30.6,25.53-36.62,35.79-14.34,69.35-32.75,100.18-54.65,13.79-9.79,32.17-10.13,46.26-.78l113.67,75.49c17.29,11.48,40.46,8.14,53.81-7.76l58.76-69.99c13.32-15.85,12.64-39.15-1.55-54.21l-97.47-103.42c-11.18-11.85-14.19-29.21-7.74-44.19,14.04-32.6,24.6-66.96,31.25-102.57,3.06-16.38,15.71-29.29,32.04-32.59l140.35-28.33c20.36-4.1,34.37-22.84,32.57-43.54l-7.94-91.04c-1.8-20.61-18.75-36.62-39.44-37.23Z"/>
        <path class="cls-3" d="m722.62,886.24l5.51-6.77c12.21-14.99.21-37.26-19.02-35.3l-558.74,56.93c-11.92,1.21-22.57-7.47-23.79-19.4L58.02,208.71c-1.21-11.92,7.47-22.57,19.39-23.79l898.46-91.54c11.92-1.21,22.57,7.47,23.79,19.39l33.96,333.27c1.96,19.23,26.2,26.5,38.41,11.5l5.15-6.31c3.63-4.45,5.34-10.18,4.76-15.9l-42.37-415.81c-1.21-11.93-11.87-20.61-23.79-19.4L19.5,101.62C7.58,102.85-1.1,113.49.11,125.42l82.58,810.59c1.21,11.93,11.87,20.61,23.8,19.4l601.51-61.29c5.72-.58,10.99-3.42,14.62-7.87ZM242.62,106.19c10.3-1.04,19.5,6.46,20.56,16.75,1.05,10.3-6.46,19.5-16.76,20.55-10.3,1.06-19.5-6.45-20.55-16.75-1.06-10.3,6.45-19.5,16.74-20.56Zm-62.66,6.39c10.3-1.05,19.5,6.46,20.55,16.76,1.06,10.3-6.45,19.5-16.75,20.55-10.3,1.06-19.5-6.45-20.56-16.74-1.04-10.3,6.46-19.5,16.76-20.56Zm-64.16,6.54c10.3-1.04,19.5,6.45,20.56,16.74,1.05,10.31-6.46,19.51-16.75,20.56-10.3,1.04-19.5-6.45-20.55-16.76-1.06-10.3,6.45-19.5,16.75-20.55Z"/>
      </g>
      <path class="cls-2" d="m204.92,562.3l-22.86,2.33-.34.04c-21.47,2.37-37.05,21.54-34.99,43.04l.02.22,13.89,136.26.04.35c2.36,21.39,21.43,36.96,42.87,34.99.13,0,.27-.02.4-.03l22.86-2.33.48-.05c21.39-2.44,36.91-21.58,34.84-43.03l-.02-.22-13.89-136.25c-2.21-21.69-21.55-37.48-43.23-35.31h-.07Z"/>
      <path class="cls-2" d="m456.34,536.68l-29.01,2.96-.32.03c-19.84,2.19-34.24,19.97-32.21,39.88l14.51,142.4c2.03,20.01,19.91,34.57,39.91,32.54l29-2.96.32-.03c19.85-2.19,34.25-19.97,32.22-39.88l-14.51-142.4-.03-.32c-2.19-19.85-19.96-34.24-39.87-32.22h0Z"/>
      <path class="cls-2" d="m323.53,477.85l-13.07,1.34-13.28,1.35c-20.56,2.09-35.57,20.32-33.78,40.83,0,.18.03.36.05.54l21.53,211.36.04.36c2.28,20.41,20.46,35.27,40.91,33.42.14,0,.3-.02.44-.04l13.17-1.34,13.16-1.35c20.56-2.09,35.58-20.32,33.79-40.84-.01-.18-.03-.36-.05-.54l-10.77-105.67-10.78-105.68c-2.09-20.6-20.37-35.64-40.94-33.78-.14,0-.3.02-.44.04Z"/>
      <path class="cls-2" d="m563.96,412.65l-18.71,1.9-.36.04c-22.67,2.5-39.12,22.83-36.8,45.56l24.86,244,.04.37c2.51,22.67,22.82,39.11,45.56,36.79l18.7-1.9.36-.04c22.67-2.5,39.12-22.82,36.8-45.56l-24.86-244-.04-.36c-2.5-22.67-22.82-39.12-45.55-36.8Z"/>
      <polygon class="cls-4" points="549.47 242.38 504.89 258.59 540.71 288.66 541.22 289.09 577.55 319.6 585.8 272.88 594.04 226.16 549.47 242.38"/>
      <path class="cls-1" d="m631.76,344.8c6.97,68.39,65.94,118.41,131.7,111.71,21.64-2.2,41.31-10.28,57.74-22.56l-70.35-101.28-12.62-123.84c-65.76,6.7-113.43,67.57-106.46,135.97Z"/>
      <path class="cls-4" d="m763.45,193.16l10.56,122.16,79.61-80.47c-35.23-46.16-90.17-41.69-90.17-41.69Z"/>
      <path class="cls-2" d="m859.35,265.33l-79.37,72.91,67.35,95.15c76.1-84.14,12.02-168.06,12.02-168.06Z"/>
      <path class="cls-1" d="m1033.97,476.46c-4.59-3.8-10.13-5.68-15.66-5.75-7.33-.09-14.65,3.01-19.68,9.11l-32.44,39.24-208.76,252.54-20.8,25.17c-8.83,10.68-7.33,26.51,3.35,35.34,10.69,8.84,26.51,7.34,35.35-3.35l24.03-29.06c20.4,9.51,43.11,14.93,67.07,15.23,90.59,1.15,164.97-71.36,166.12-161.96.46-36.54-11.05-70.44-30.91-97.97l35.7-43.18c8.84-10.68,7.34-26.51-3.35-35.34Z"/>
      <rect class="cls-4" x="475.54" y="263.98" width="31" height="171.75" rx="5.84" ry="5.84" transform="translate(326.53 -230.19) rotate(38.7)"/>
      <rect class="cls-4" x="367.92" y="256.66" width="31" height="194.34" rx="5.84" ry="5.84" transform="translate(899.29 275.79) rotate(128.7)"/>
      <rect class="cls-4" x="233.48" y="263.93" width="31" height="254.17" rx="5.84" ry="5.84" transform="translate(198.85 851.85) rotate(-141.3)"/>
    </g>
  </g>
</svg>